<?xml version="1.0" encoding="utf-8"?>
<!-- Generator: Adobe Illustrator 28.0.0, SVG Export Plug-In . SVG Version: 6.00 Build 0)  -->
<svg version="1.1"
	 id="svg2" xmlns:svg="http://www.w3.org/2000/svg" xmlns:dc="http://purl.org/dc/elements/1.1/" xmlns:rdf="http://www.w3.org/1999/02/22-rdf-syntax-ns#" xmlns:cc="http://creativecommons.org/ns#"
	 xmlns="http://www.w3.org/2000/svg" xmlns:xlink="http://www.w3.org/1999/xlink" x="0px" y="0px" viewBox="0 0 65.7 169.2"
	 style="enable-background:new 0 0 65.7 169.2;" xml:space="preserve">
<style type="text/css">
	.st0{fill:#D61E1E;}
	.st1{fill:#1F1F1F;}
	.st2{fill:#404040;}
	.st3{fill:#AA8800;}
	.st4{fill:#FFFFFF;}
	.st5{fill:#D4AA00;}
	.st6{fill:#8D8C8C;}
	.st7{fill:#8C8663;}
	.st8{fill:#B8AF82;}
	.st9{fill:#80795B;}
	.st10{fill:#5E5B43;}
	.st11{fill:#9A916C;}
	.st12{fill:#FFCC00;}
	.st13{fill:#E6E6E6;}
	.st14{fill:#8C8C8C;}
	.st15{fill:#303030;}
	.st16{fill:#3D3D3D;}
	.st17{fill:#999999;}
	.st18{fill:#333333;}
	.st19{fill:#1A1A1A;}
	.st20{fill:#3250BE;}
	.st21{fill:#B3B3B3;}
	.st22{fill:#808080;}
	.st23{fill:#263C8F;}
	.st24{fill:#CCCCCC;}
	.st25{fill:none;stroke:#000000;stroke-width:0.2;stroke-miterlimit:10;}
	.st26{font-family:'Arial-BoldMT';}
	.st27{font-size:2.2094px;}
	.st28{opacity:0.35;enable-background:new    ;}
	.st29{fill:#131E48;}
	.st30{opacity:0.18;fill:#FFFFFF;enable-background:new    ;}
	.st31{fill:#4D4D4D;}
	.st32{opacity:0.2;fill:#FFFFFF;enable-background:new    ;}
	.st33{opacity:0.2;enable-background:new    ;}
	.st34{fill:#DCDCDC;}
	.st35{opacity:0.15;enable-background:new    ;}
	.st36{opacity:0.5;fill:#FFFFFF;enable-background:new    ;}
	.st37{fill:none;}
	.st38{font-family:'ArialMT';}
	.st39{font-size:3.5px;}
	.st40{opacity:0.3;enable-background:new    ;}
	.st41{opacity:0.5;enable-background:new    ;}
	.st42{opacity:0.9;enable-background:new    ;}
	.st43{fill:#D1D1D1;}
	.st44{opacity:0.7;enable-background:new    ;}
	.st45{opacity:0.25;enable-background:new    ;}
	.st46{fill:#666666;}
	.st47{opacity:0.65;enable-background:new    ;}
	.st48{fill:#FC6800;}
</style>
<rect id="middle" x="0" y="68.5" class="st0" width="43.2" height="86.4"/>
<g id="g8" transform="translate(214.31203,200.00001)">
	<polygon id="left" class="st1" points="-171.1,-45.1 -197.8,-45.1 -196,-45.7 -172.9,-45.7 	"/>
</g>
<g id="g11" transform="matrix(0,-0.1,0.1,0,262.64011,499.34242)">
	<polygon id="polygon7" class="st2" points="3535.7,-2338.9 3495,-2338.9 3479.3,-2323.2 3479.3,-2282.5 3479.3,-2282.5 
		3495,-2266.9 3535.7,-2266.9 3551.3,-2282.5 3551.3,-2323.2 	"/>
</g>
<g id="g14" transform="matrix(0,-0.1,0.1,0,262.64011,499.34242)">
	<polygon id="polygon23" class="st2" points="3535.7,-2410.9 3495,-2410.9 3479.3,-2395.2 3479.3,-2354.5 3479.3,-2354.5 
		3495,-2338.9 3535.7,-2338.9 3551.3,-2354.5 3551.3,-2395.2 	"/>
</g>
<g id="g17" transform="matrix(0,-0.1,0.1,0,262.64011,499.34242)">
	<polygon id="polygon39-2" class="st2" points="3535.7,-2482.9 3495,-2482.9 3479.3,-2467.2 3479.3,-2426.5 3479.3,-2426.5 
		3495,-2410.9 3535.7,-2410.9 3551.3,-2426.5 3551.3,-2467.2 	"/>
</g>
<g id="g20" transform="matrix(0.02924925,0.19251476,-0.05099884,0.05130482,0.73051024,-88.508699)">
	<polygon id="polygon33-7" class="st3" points="1233.6,371.1 1244.3,354 1237.5,376.9 1232.1,385.6 	"/>
</g>
<g id="g23" transform="matrix(-1,0,0,-1,-1.2883698,-0.21183777)">
	<rect id="rect29" x="-19" y="-169.3" class="st4" width="0.7" height="1.2"/>
</g>
<g id="g26" transform="matrix(0,-0.09999851,0.1239789,0.0521716,-56.43151,385.76438)">
	<polygon id="polygon35" class="st5" points="2487.2,602.8 2496.9,621.3 2486.4,614.5 2481.4,605 	"/>
</g>
<g id="g29" transform="matrix(0,-1,1,0,-1.2883698,-0.21183777)">
	
		<rect id="rect43" x="-149.3" y="19.7" transform="matrix(-2.535182e-06 -1 1 -2.535182e-06 -168.963 -127.331)" class="st6" width="2.3" height="2.3"/>
</g>
<g id="g32" transform="matrix(0,-1,1,0,-1.2883698,-0.21183777)">
	
		<rect id="rect45" x="-148.7" y="20.2" transform="matrix(-2.535182e-06 -1 1 -2.535182e-06 -168.963 -127.331)" class="st7" width="1.2" height="1.2"/>
</g>
<g id="g35" transform="matrix(0,-0.09999851,0.1,0,260.87618,521.21692)">
	<polygon id="polygon47" class="st8" points="3721.4,-2402 3726.9,-2407.6 3726.9,-2419.4 3721.4,-2425 	"/>
</g>
<g id="g38" transform="matrix(0,-0.09999851,0.1,0,260.87618,521.21692)">
	<polygon id="polygon49" class="st9" points="3738.8,-2419.4 3726.9,-2419.4 3721.4,-2425 3744.3,-2425 	"/>
</g>
<g id="g41" transform="matrix(0,-0.09999851,0.1,0,260.87618,521.21692)">
	<polygon id="polygon51" class="st10" points="3738.8,-2407.6 3738.8,-2419.4 3744.3,-2425 3744.3,-2402 	"/>
</g>
<g id="g44" transform="matrix(0,-0.09999851,0.1,0,260.87618,521.21692)">
	<polygon id="polygon53-8" class="st11" points="3721.4,-2402 3726.9,-2407.6 3738.8,-2407.6 3744.3,-2402 	"/>
</g>
<g id="g47" transform="matrix(0,-1,1,0,-1.2883698,-0.21183777)">
	
		<rect id="rect3420" x="-158" y="8.7" transform="matrix(-2.535182e-06 -1 1 -2.535182e-06 -177.0434 -138.4066)" class="st5" width="0.6" height="21.2"/>
</g>
<g id="g50" transform="matrix(0,-1,1,0,-1.2883698,-0.21183777)">
	
		<rect id="rect3424" x="-148.9" y="17.4" transform="matrix(-2.535182e-06 -1 1 -2.535182e-06 -166.5784 -129.7792)" class="st5" width="1.4" height="2.1"/>
</g>
<g id="g53" transform="matrix(0.7001356,-0.7140099,0.84648917,0.53240594,-1.2883698,-0.21183777)">
	<polygon id="rect27" class="st4" points="-137.1,136.4 -136.7,134.3 -135.4,134 -135.8,136.2 	"/>
</g>
<g id="g56" transform="matrix(0,-1,1,0,-1.2883698,-0.21183777)">
	
		<rect id="rect3681" x="-159.1" y="10" transform="matrix(-2.535182e-06 -1 1 -2.535182e-06 -178.6645 -137.1605)" class="st12" width="2.3" height="21.6"/>
</g>
<g id="g59" transform="matrix(0.02924925,0.19251476,-0.05099884,0.05130482,0.73051024,11.660811)">
	<polygon id="polygon3444" class="st3" points="825.6,-27.5 818.9,-4.6 813.4,4.1 815,-10.5 	"/>
</g>
<g id="g62" transform="matrix(-1,0,0,-1,-1.2883698,-0.21183777)">
	<rect id="rect3448" x="-26.3" y="-169.3" class="st4" width="0.7" height="1.2"/>
</g>
<g id="g65" transform="matrix(0,-0.09999851,0.1239789,0.0521716,-56.43151,485.93389)">
	<polygon id="polygon3450" class="st5" points="3529,679.5 3518.5,672.7 3513.5,663.1 3519.3,661 	"/>
</g>
<g id="g68" transform="matrix(0,-1,1,0,-1.2883698,-0.21183777)">
	
		<rect id="rect3452" x="-149.3" y="26.9" transform="matrix(-2.535182e-06 -1 1 -2.535182e-06 -176.1752 -120.1188)" class="st6" width="2.3" height="2.3"/>
</g>
<g id="g71" transform="matrix(0,-1,1,0,-1.2883698,-0.21183777)">
	
		<rect id="rect3454" x="-148.7" y="27.4" transform="matrix(-2.535182e-06 -1 1 -2.535182e-06 -176.1752 -120.1188)" class="st7" width="1.2" height="1.2"/>
</g>
<g id="g74" transform="matrix(0,-0.09999851,0.1,0,260.87618,621.38643)">
	<polygon id="polygon3456" class="st8" points="4728.7,-2335.5 4728.7,-2347.3 4723.1,-2352.9 4723.1,-2329.9 	"/>
</g>
<g id="g77" transform="matrix(0,-0.09999851,0.1,0,260.87618,621.38643)">
	<polygon id="polygon3458" class="st9" points="4728.7,-2347.3 4723.1,-2352.9 4746.1,-2352.9 4740.5,-2347.3 	"/>
</g>
<g id="g80" transform="matrix(0,-0.09999851,0.1,0,260.87618,621.38643)">
	<polygon id="polygon3460" class="st10" points="4740.5,-2347.3 4746.1,-2352.9 4746.1,-2329.9 4740.5,-2335.5 	"/>
</g>
<g id="g83" transform="matrix(0,-0.09999851,0.1,0,260.87618,621.38643)">
	<polygon id="polygon3462" class="st11" points="4728.7,-2335.5 4740.5,-2335.5 4746.1,-2329.9 4723.1,-2329.9 	"/>
</g>
<g id="g86" transform="matrix(0,-1,1,0,-1.2883698,-0.21183777)">
	
		<rect id="rect3466" x="-158" y="15.9" transform="matrix(-2.535182e-06 -1 1 -2.535182e-06 -184.2556 -131.1944)" class="st5" width="0.6" height="21.2"/>
</g>
<g id="g89" transform="matrix(0,-1,1,0,-1.2883698,-0.21183777)">
	
		<rect id="rect3468" x="-148.9" y="24.6" transform="matrix(-2.535182e-06 -1 1 -2.535182e-06 -173.7905 -122.5668)" class="st5" width="1.4" height="2.1"/>
</g>
<g id="g92" transform="matrix(0.7001356,-0.7140099,0.84648917,0.53240594,-1.2883698,-0.21183777)">
	<polygon id="rect3470" class="st4" points="-133.2,141.7 -132.7,139.6 -131.4,139.3 -131.9,141.4 	"/>
</g>
<g id="g95" transform="matrix(0,-1,1,0,-1.2883698,-0.21183777)">
	
		<rect id="rect3679" x="-159.1" y="17.2" transform="matrix(-2.535182e-06 -1 1 -2.535182e-06 -185.8767 -129.9483)" class="st12" width="2.3" height="21.6"/>
</g>
<g id="g98" transform="matrix(0.02924925,0.19251476,-0.05099884,0.05130482,0.97144024,111.65933)">
	<polygon id="polygon3474" class="st3" points="406.5,-404.3 399.8,-381.4 394.3,-372.7 395.9,-387.3 	"/>
</g>
<g id="g101" transform="matrix(-1,0,0,-1,-1.2883698,-0.21183777)">
	<rect id="rect3478" x="-33.5" y="-169.3" class="st4" width="0.7" height="1.2"/>
</g>
<g id="g104" transform="matrix(0,-0.09999851,0.1239789,0.0521716,-56.19058,585.93241)">
	<polygon id="polygon3480" class="st5" points="4558.4,735.6 4547.9,728.8 4542.9,719.3 4548.7,717.1 	"/>
</g>
<g id="g107" transform="matrix(0,-1,1,0,-1.2883698,-0.21183777)">
	
		<rect id="rect3482" x="-149.3" y="34.1" transform="matrix(-2.535182e-06 -1 1 -2.535182e-06 -183.3578 -112.9015)" class="st6" width="2.3" height="2.3"/>
</g>
<g id="g110" transform="matrix(0,-1,1,0,-1.2883698,-0.21183777)">
	
		<rect id="rect3484" x="-148.7" y="34.6" transform="matrix(-2.535182e-06 -1 1 -2.535182e-06 -183.3578 -112.9015)" class="st7" width="1.2" height="1.2"/>
</g>
<g id="g113" transform="matrix(0,-0.09999851,0.1,0,261.11711,721.38495)">
	<polygon id="polygon3486" class="st8" points="5728.8,-2265.9 5728.8,-2277.7 5723.2,-2283.3 5723.2,-2260.3 	"/>
</g>
<g id="g116" transform="matrix(0,-0.09999851,0.1,0,261.11711,721.38495)">
	<polygon id="polygon3488" class="st9" points="5728.8,-2277.7 5723.2,-2283.3 5746.2,-2283.3 5740.6,-2277.7 	"/>
</g>
<g id="g119" transform="matrix(0,-0.09999851,0.1,0,261.11711,721.38495)">
	<polygon id="polygon3490" class="st10" points="5740.6,-2277.7 5746.2,-2283.3 5746.2,-2260.3 5740.6,-2265.9 	"/>
</g>
<g id="g122" transform="matrix(0,-0.09999851,0.1,0,261.11711,721.38495)">
	<polygon id="polygon3492" class="st11" points="5728.8,-2265.9 5740.6,-2265.9 5746.2,-2260.3 5723.2,-2260.3 	"/>
</g>
<g id="g125" transform="matrix(0,-1,1,0,-1.2883698,-0.21183777)">
	
		<rect id="rect3496" x="-158" y="23.1" transform="matrix(-2.535182e-06 -1 1 -2.535182e-06 -191.4381 -123.9772)" class="st5" width="0.6" height="21.2"/>
</g>
<g id="g128" transform="matrix(0,-1,1,0,-1.2883698,-0.21183777)">
	
		<rect id="rect3498" x="-148.9" y="31.8" transform="matrix(-2.535182e-06 -1 1 -2.535182e-06 -180.973 -115.3495)" class="st5" width="1.4" height="2.1"/>
</g>
<g id="g131" transform="matrix(0.7001356,-0.7140099,0.84648917,0.53240594,-1.2883698,-0.21183777)">
	<polygon id="rect3500" class="st4" points="-129.2,146.9 -128.8,144.8 -127.5,144.6 -128,146.7 	"/>
</g>
<g id="g134" transform="matrix(0,-1,1,0,-1.2883698,-0.21183777)">
	
		<rect id="rect3677" x="-159" y="24.4" transform="matrix(-2.535182e-06 -1 1 -2.535182e-06 -193.0592 -122.731)" class="st12" width="2.3" height="21.6"/>
</g>
<g id="g137" transform="matrix(0,-0.1,0.1,0,262.64011,398.98462)">
	<polygon id="polygon3551" class="st2" points="2491.4,-2555.1 2475.8,-2539.5 2475.8,-2498.8 2475.8,-2498.8 2491.4,-2483.1 
		2532.1,-2483.1 2547.8,-2498.8 2547.8,-2539.5 2532.1,-2555.1 	"/>
</g>
<g id="g140" transform="matrix(0.02924925,0.19251476,-0.05099884,0.05130482,0.73051024,-188.8665)">
	<polygon id="polygon3555" class="st3" points="1663.7,736.3 1657,759.1 1651.5,767.9 1653.1,753.3 	"/>
</g>
<g id="g143" transform="matrix(-1,0,0,-1,-1.2883698,-0.21183777)">
	<rect id="rect3559" x="-11.8" y="-169.3" class="st4" width="0.7" height="1.2"/>
</g>
<g id="g146" transform="matrix(0,-0.09999851,0.1239789,0.0521716,-56.43151,285.40658)">
	<polygon id="polygon3561" class="st5" points="1462.9,563.1 1452.4,556.2 1447.4,546.7 1453.2,544.5 	"/>
</g>
<g id="g149" transform="matrix(0,-1,1,0,-1.2883698,-0.21183777)">
	
		<rect id="rect3563" x="-149.3" y="12.4" transform="matrix(-2.535182e-06 -1 1 -2.535182e-06 -161.7372 -134.5568)" class="st6" width="2.3" height="2.3"/>
</g>
<g id="g152" transform="matrix(0,-1,1,0,-1.2883698,-0.21183777)">
	
		<rect id="rect3565" x="-148.7" y="13" transform="matrix(-2.535182e-06 -1 1 -2.535182e-06 -161.7372 -134.5568)" class="st7" width="1.2" height="1.2"/>
</g>
<g id="g155" transform="matrix(0,-0.09999851,0.1,0,260.87618,420.85912)">
	<polygon id="polygon3567" class="st8" points="2723.4,-2479.8 2723.4,-2491.6 2717.8,-2497.2 2717.8,-2474.3 	"/>
</g>
<g id="g158" transform="matrix(0,-0.09999851,0.1,0,260.87618,420.85912)">
	<polygon id="polygon3569" class="st9" points="2723.4,-2491.6 2717.8,-2497.2 2740.8,-2497.2 2735.2,-2491.6 	"/>
</g>
<g id="g161" transform="matrix(0,-0.09999851,0.1,0,260.87618,420.85912)">
	<polygon id="polygon3571" class="st10" points="2735.2,-2491.6 2740.8,-2497.2 2740.8,-2474.3 2735.2,-2479.8 	"/>
</g>
<g id="g164" transform="matrix(0,-0.09999851,0.1,0,260.87618,420.85912)">
	<polygon id="polygon3573" class="st11" points="2723.4,-2479.8 2735.2,-2479.8 2740.8,-2474.3 2717.8,-2474.3 	"/>
</g>
<g id="g167" transform="matrix(0,-1,1,0,-1.2883698,-0.21183777)">
	
		<rect id="rect3577" x="-158" y="1.5" transform="matrix(-2.535182e-06 -1 1 -2.535182e-06 -169.8176 -145.6324)" class="st5" width="0.6" height="21.2"/>
</g>
<g id="g170" transform="matrix(0,-1,1,0,-1.2883698,-0.21183777)">
	
		<rect id="rect3579" x="-148.9" y="10.1" transform="matrix(-2.535182e-06 -1 1 -2.535182e-06 -159.3527 -137.005)" class="st5" width="1.4" height="2.1"/>
</g>
<g id="g173" transform="matrix(0.7001356,-0.7140099,0.84648917,0.53240594,-1.2883698,-0.21183777)">
	<polygon id="rect3581" class="st4" points="-141,131.1 -140.6,129 -139.3,128.8 -139.8,130.9 	"/>
</g>
<g id="g176" transform="matrix(0,-1,1,0,-1.2883698,-0.21183777)">
	
		<rect id="rect3583" x="-159.1" y="2.7" transform="matrix(-2.535182e-06 -1 1 -2.535182e-06 -171.4387 -144.3863)" class="st12" width="2.3" height="21.6"/>
</g>
<rect id="rect3655" x="0.1" y="54.2" class="st0" width="7.2" height="14.4"/>
<rect id="rect3657" x="36" y="55" class="st0" width="7.2" height="14.4"/>
<g id="g181" transform="matrix(0,-1.6094531,1.3714201,0,-308.07817,-331.09655)">
	
		<rect id="rect20" x="-270.3" y="246.4" transform="matrix(-2.535182e-06 -1 1 -2.535182e-06 -517.0907 -22.8983)" class="st13" width="0.6" height="1.4"/>
</g>
<g id="g184" transform="matrix(0,-1.6094531,1.3714201,0,-308.07817,-331.09655)">
	
		<rect id="rect22" x="-270.3" y="245.3" transform="matrix(-2.535182e-06 -1 1 -2.535182e-06 -516.0095 -23.9795)" class="st13" width="0.6" height="1.4"/>
</g>
<g id="g187" transform="matrix(0,-1.6094531,1.3714201,0,-308.07817,-331.09655)">
	
		<rect id="rect24" x="-270.3" y="244.2" transform="matrix(-2.535182e-06 -1 1 -2.535182e-06 -514.9283 -25.0606)" class="st13" width="0.6" height="1.4"/>
</g>
<g id="g190" transform="matrix(0,-1.6094531,1.3714201,0,-308.07817,-331.09655)">
	
		<rect id="rect26" x="-270.3" y="243.1" transform="matrix(-2.535182e-06 -1 1 -2.535182e-06 -513.8472 -26.1418)" class="st13" width="0.6" height="1.4"/>
</g>
<g id="g193" transform="matrix(0,-1.6094531,1.3714201,0,-308.07817,-331.09655)">
	
		<rect id="rect28" x="-276.1" y="243.1" transform="matrix(-2.535182e-06 -1 1 -2.535182e-06 -519.6442 -31.9388)" class="st13" width="0.6" height="1.4"/>
</g>
<g id="g196" transform="matrix(0,-1.6094531,1.3714201,0,-308.07817,-331.09655)">
	
		<rect id="rect30" x="-276.1" y="244.2" transform="matrix(-2.535182e-06 -1 1 -2.535182e-06 -520.7253 -30.8576)" class="st13" width="0.6" height="1.4"/>
</g>
<g id="g199" transform="matrix(0,-1.6094531,1.3714201,0,-308.07817,-331.09655)">
	
		<rect id="rect32" x="-276.1" y="245.3" transform="matrix(-2.535182e-06 -1 1 -2.535182e-06 -521.8065 -29.7764)" class="st13" width="0.6" height="1.4"/>
</g>
<g id="g202" transform="matrix(0,-1.6094531,1.3714201,0,-308.07817,-331.09655)">
	
		<rect id="rect34" x="-276.1" y="246.4" transform="matrix(-2.535182e-06 -1 1 -2.535182e-06 -522.8876 -28.6953)" class="st13" width="0.6" height="1.4"/>
</g>
<g id="g205" transform="matrix(0,-1.6094531,1.3714201,0,-308.07817,-331.09655)">
	
		<rect id="rect36" x="-274.7" y="243.6" transform="matrix(-2.535182e-06 -1 1 -2.535182e-06 -518.3674 -27.4185)" class="st14" width="3.7" height="3.7"/>
</g>
<g id="g208" transform="matrix(0,-1.6094531,1.3714201,0,-308.07817,-331.09655)">
	
		<rect id="rect38" x="-275.3" y="243.2" transform="matrix(-2.535182e-06 -1 1 -2.535182e-06 -518.5479 -27.2381)" class="st15" width="4.8" height="4.9"/>
</g>
<g id="g211" transform="matrix(0,-0.80472654,0.68571003,0,785.42331,454.41583)">
	<polygon id="polygon40" class="st1" points="426.2,-1109.1 426.8,-1108.2 426.8,-1098.5 426.2,-1097.7 	"/>
</g>
<g id="g214" transform="matrix(0,-0.80472654,0.68571003,0,785.42331,454.41583)">
	<polygon id="polygon42" class="st1" points="434.5,-1109.1 433.9,-1108.2 433.9,-1098.5 434.5,-1097.7 	"/>
</g>
<g id="g217" transform="matrix(0,-0.80472654,0.68571003,0,785.42331,454.41583)">
	<polygon id="polygon44" points="434.5,-1097.7 433.9,-1098.5 426.8,-1098.5 426.2,-1097.7 	"/>
</g>
<g id="g220" transform="matrix(0,-0.80472654,0.68571003,0,785.42331,454.41583)">
	<polygon id="polygon46" class="st16" points="434.5,-1109.1 433.9,-1108.2 426.8,-1108.2 426.2,-1109.1 	"/>
</g>
<g id="g223" transform="matrix(0,-1.6094531,1.3714201,0,-308.07817,-331.09655)">
	<ellipse id="circle48" class="st1" cx="-271.7" cy="247.2" rx="0.6" ry="0.5"/>
</g>
<rect id="rect35" x="5.7" y="103.9" class="st17" width="8.8" height="9.4"/>
<g id="g227" transform="matrix(9.0187584,0,0,7.6713589,756.03316,67.632525)">
	<polygon id="polygon37" class="st18" points="-82.8,5.8 -82.6,5.8 -82.6,5.4 -82.3,5.4 -82.3,5.3 -82.6,5.3 -82.6,4.9 -82.8,4.9 
		-82.8,5.3 -83,5.3 -83,5.4 -82.8,5.4 	"/>
</g>
<g id="g230" transform="matrix(9.0187584,0,0,7.6713589,756.03316,67.632525)">
	<polygon id="polygon39" class="st19" points="-82.7,5.8 -82.8,5.8 -82.8,5.4 -83,5.4 -83,5.4 -82.7,5.4 	"/>
</g>
<g id="g233" transform="matrix(9.0187584,0,0,7.6713589,756.03316,67.632525)">
	<polygon id="polygon41" class="st19" points="-82.4,5.4 -82.4,5.4 -82.6,5.4 -82.6,5.4 	"/>
</g>
<g id="g236" transform="matrix(9.0187584,0,0,7.6713589,756.03316,67.632525)">
	<polygon id="polygon43" class="st19" points="-82.8,4.9 -82.7,4.9 -82.7,5.2 -82.8,5.3 	"/>
</g>
<path id="path45" class="st20" d="M4.8,115.9h10.8l0-14.4H4.8L4.8,115.9z M12.8,108.7c0,1.6-1.1,2.9-2.5,2.9c-1.4,0-2.5-1.3-2.5-2.9
	c0-1.6,1.1-2.9,2.5-2.9C11.6,105.7,12.8,107.1,12.8,108.7z"/>
<ellipse id="circle47" class="st13" cx="13.3" cy="114.5" rx="0.2" ry="0.3"/>
<ellipse id="circle49" class="st13" cx="13.3" cy="114.5" rx="0.2" ry="0.3"/>
<ellipse id="circle51" class="st21" cx="13.3" cy="114.5" rx="0.2" ry="0.3"/>
<path id="path53" class="st13" d="M13.5,114.7c-0.1,0.1-0.2,0.1-0.3,0c-0.1-0.1-0.1-0.3,0-0.4c0.1-0.1-0.2,0.1,0.1,0.3
	C13.4,114.8,13.5,114.6,13.5,114.7z"/>
<path id="path55" class="st22" d="M13.1,114.3c0.1-0.1,0.2-0.1,0.3,0c0.1,0.1,0.1,0.3,0,0.4c-0.1,0.1,0.2-0.1-0.1-0.3
	C13.2,114.1,13,114.4,13.1,114.3z"/>
<ellipse id="circle57" class="st18" cx="8.5" cy="110.7" rx="0.2" ry="0.3"/>
<ellipse id="circle59" class="st18" cx="8.5" cy="106.7" rx="0.2" ry="0.3"/>
<path id="path63" class="st23" d="M8.6,110.9l-0.8,1.4l0.5,0.4l0.8-1.4C8.9,111.2,8.8,111.1,8.6,110.9z"/>
<path id="path65" class="st23" d="M7.7,108.7c0-0.1,0-0.2,0-0.3l-2,0l0,0.6l2,0C7.8,108.9,7.7,108.8,7.7,108.7z"/>
<path id="path67" class="st23" d="M7.9,109.8l-1.1,0.7l0.3,0.6l1.1-0.7C8.1,110.2,8,110,7.9,109.8z"/>
<path id="path69" class="st23" d="M10.3,105.7C10.3,105.7,10.3,105.7,10.3,105.7l-0.1-1.6l-0.6,0.1l0.1,1.6
	C9.9,105.8,10.1,105.7,10.3,105.7z"/>
<path id="path71" class="st23" d="M8.2,107l-1.1-0.7l-0.3,0.6l1.1,0.7C8,107.4,8.1,107.2,8.2,107z"/>
<path id="path73" class="st23" d="M9.1,106.1l-0.7-1.3l-0.5,0.4l0.7,1.3C8.8,106.3,8.9,106.2,9.1,106.1z"/>
<path id="path75" class="st23" d="M11.4,106.1l0.6-1.7l-0.5-0.2l-0.6,1.7C11.1,105.9,11.3,106,11.4,106.1z"/>
<path id="path77" class="st23" d="M12.3,106.9L14,105l-0.4-0.5l-1.8,1.9C12,106.6,12.2,106.8,12.3,106.9z"/>
<path id="path79" class="st23" d="M11.9,110.9l1.2,1.4l0.4-0.5l-1.2-1.4C12.1,110.6,12,110.8,11.9,110.9z"/>
<path id="path81" class="st23" d="M10.3,111.6c-0.2,0-0.3,0-0.5-0.1l-0.1,1.7l0.5,0.1L10.3,111.6C10.3,111.6,10.3,111.6,10.3,111.6z
	"/>
<path id="path83" class="st23" d="M10.9,111.5l0.6,1.7L12,113l-0.6-1.8C11.2,111.4,11.1,111.5,10.9,111.5z"/>
<g id="g258" transform="matrix(9.0187584,0,0,7.6713589,756.03316,67.632525)">
	<polygon id="polygon85" class="st24" points="-82.4,5.2 -82.6,5.2 -82.6,4.9 -82.6,4.9 -82.6,5.3 -82.4,5.3 	"/>
</g>
<path id="path87" class="st23" d="M7.1,108.7c0,2.1,1.4,3.7,3.2,3.7s3.2-1.7,3.2-3.7c0-2.1-1.4-3.7-3.2-3.7
	C8.5,104.9,7.1,106.6,7.1,108.7z M12.8,108.7c0,1.6-1.1,2.9-2.5,2.9c-1.4,0-2.5-1.3-2.5-2.9c0-1.6,1.1-2.9,2.5-2.9
	C11.6,105.7,12.8,107.1,12.8,108.7z"/>
<path id="path91" class="st25" d="M12.7,106.4L12.7,106.4c0.5,0.7,0.7,1.5,0.7,2.3c0,0.8-0.2,1.6-0.7,2.3l0,0.1l0.7,0.8l-0.3,0.4
	l-0.7-0.8l0,0c-0.2,0.2-0.5,0.4-0.7,0.6l0,0l0.3,1l-0.4,0.2l-0.3-1l-0.1,0c-0.3,0.1-0.6,0.1-0.9,0.1h-0.1l0,0.1l-0.1,0.9l-0.4-0.1
	l0.1-0.9l-0.1,0c-0.3-0.1-0.6-0.2-0.9-0.4l0,0l-0.4,0.7L8,112.3l0.4-0.7l0,0c-0.2-0.2-0.4-0.5-0.6-0.8l0-0.1l-0.5,0.3l-0.2-0.4
	l0.5-0.3l0-0.1c-0.1-0.4-0.2-0.8-0.3-1.2l0-0.1l-1.3,0l0-0.5l1.3,0l0-0.1c0-0.4,0.1-0.8,0.3-1.2l0-0.1l-0.5-0.3l0.2-0.4l0.5,0.3
	l0-0.1c0.2-0.3,0.4-0.6,0.7-0.8l0,0L8,105.2l0.4-0.3l0.3,0.6l0,0c0.3-0.2,0.6-0.3,1-0.4l0.1,0l-0.1-0.8l0.4,0l0.1,0.8l0.1,0
	c0.3,0,0.6,0.1,0.9,0.2l0.1,0l0.3-0.9l0.4,0.2l-0.3,0.9l0,0c0.2,0.1,0.5,0.3,0.7,0.6l0,0l1.2-1.4l0.3,0.4L12.7,106.4L12.7,106.4z"/>
<g id="g263" transform="matrix(1.0842695,0,0,0.92227996,-1.2883698,-0.21183777)">
	<text id="text95" transform="matrix(3.968701e-07 -1.2747 0.9223 3.968703e-07 15.2274 124.4229)" class="st23 st26 st27">1 3362 3</text>
</g>
<path id="path97" class="st28" d="M10.4,111.4c-1.4,0-2.5-1.3-2.5-2.9c0-0.6,0.2-1.4,0.2-1.4c-0.3,0.5-0.4,1-0.4,1.6
	c0,1.6,1.1,2.9,2.5,2.9c0.4,0,0.7-0.1,1-0.3C11.3,111.4,10.8,111.4,10.4,111.4z"/>
<rect id="rect99" x="15.7" y="101.5" class="st29" width="3.6" height="14.4"/>
<rect id="rect101" x="15.4" y="101.5" class="st30" width="0.6" height="14.4"/>
<rect id="rect20-3" x="6.5" y="82.1" class="st31" width="2.7" height="8"/>
<rect id="rect22-4" x="6.5" y="82.1" class="st32" width="0" height="8"/>
<rect id="rect24-0" x="8.6" y="82.1" class="st18" width="0.8" height="8"/>
<rect id="rect26-4" x="9.3" y="82.1" class="st33" width="0" height="8"/>
<path id="path30" class="st34" d="M6.5,83.3L6.5,83.3L6.5,83.3L6.5,83.3L6.5,83.3c0.3,0.2,0.8,0.2,1.1,0.2c0.3,0,0.7,0,1-0.1l0,0
	l0,0l0-1.2l-2,0L6.5,83.3z"/>
<path id="path32" class="st34" d="M6.6,88.8H6.5l0,1.2h2v-1.2c-0.3-0.1-0.7-0.2-1-0.2C7.3,88.6,6.9,88.7,6.6,88.8z"/>
<path id="path34" class="st17" d="M8.7,82.1v1.2l-0.1,0v-1.2L8.7,82.1L8.7,82.1z"/>
<path id="path36" class="st17" d="M8.7,90.1v-1.2l-0.1,0v1.2L8.7,90.1L8.7,90.1z"/>
<rect id="rect38-2" x="9.3" y="88.8" class="st35" width="0" height="1.2"/>
<rect id="rect40" x="6.5" y="88.8" class="st36" width="0" height="1.2"/>
<rect id="rect42" x="9.3" y="82.1" class="st35" width="0" height="1.2"/>
<rect id="rect44" x="6.5" y="82.1" class="st36" width="0" height="1.2"/>
<line id="line46" class="st37" x1="9.4" y1="89.3" x2="9.4" y2="89.3"/>
<rect id="rect48" x="8.7" y="82.1" class="st17" width="0.7" height="0.1"/>
<rect id="rect50" x="8.7" y="89.9" class="st17" width="0.7" height="0.1"/>
<rect id="rect20-5" x="11.9" y="82.2" class="st31" width="2.7" height="8"/>
<rect id="rect22-49" x="11.9" y="82.2" class="st32" width="0" height="8"/>
<rect id="rect24-9" x="13.9" y="82.2" class="st18" width="0.8" height="8"/>
<rect id="rect26-5" x="14.7" y="82.2" class="st33" width="0" height="8"/>
<path id="path30-6" class="st34" d="M11.9,83.4L11.9,83.4L11.9,83.4L11.9,83.4L11.9,83.4c0.3,0.2,0.8,0.2,1.1,0.2c0.3,0,0.7,0,1-0.1
	l0,0l0,0l0-1.2h-2L11.9,83.4z"/>
<path id="path32-1" class="st34" d="M12,88.9h-0.1v1.2h2l0-1.2c-0.3-0.1-0.7-0.2-1-0.2C12.6,88.8,12.3,88.8,12,88.9z"/>
<path id="path34-8" class="st17" d="M14,82.2l0,1.2l-0.1,0v-1.2L14,82.2L14,82.2z"/>
<path id="path36-4" class="st17" d="M14,90.2v-1.2l-0.1,0l0,1.2L14,90.2L14,90.2z"/>
<rect id="rect38-1" x="14.7" y="88.9" class="st35" width="0" height="1.2"/>
<rect id="rect40-6" x="11.9" y="88.9" class="st36" width="0" height="1.2"/>
<rect id="rect42-8" x="14.7" y="82.2" class="st35" width="0" height="1.2"/>
<rect id="rect44-6" x="11.9" y="82.2" class="st36" width="0" height="1.2"/>
<line id="line46-6" class="st37" x1="14.7" y1="89.4" x2="14.7" y2="89.4"/>
<rect id="rect48-0" x="14" y="82.2" class="st17" width="0.7" height="0.1"/>
<rect id="rect50-5" x="14" y="90.1" class="st17" width="0.7" height="0.1"/>
<rect id="rect3837" x="30.3" y="82.1" class="st31" width="2.7" height="8"/>
<rect id="rect3839" x="30.3" y="82.1" class="st32" width="0" height="8"/>
<rect id="rect3841" x="32.3" y="82.1" class="st18" width="0.8" height="8"/>
<rect id="rect3843" x="33.1" y="82.1" class="st33" width="0" height="8"/>
<path id="path3845" class="st34" d="M30.3,83.3L30.3,83.3L30.3,83.3L30.3,83.3L30.3,83.3c0.3,0.2,0.8,0.2,1.1,0.2c0.3,0,0.7,0,1-0.1
	l0,0l0,0l0-1.2h-2C30.3,82.1,30.3,83.3,30.3,83.3z"/>
<path id="path3847" class="st34" d="M30.4,88.8h-0.1v1.2h2v-1.2c-0.3-0.1-0.7-0.2-1-0.2C31,88.6,30.7,88.7,30.4,88.8z"/>
<path id="path3849" class="st17" d="M32.5,82.1v1.2l-0.1,0v-1.2L32.5,82.1L32.5,82.1z"/>
<path id="path3851" class="st17" d="M32.5,90.1l0-1.2l-0.1,0v1.2L32.5,90.1L32.5,90.1z"/>
<rect id="rect3853" x="33.1" y="88.8" class="st35" width="0" height="1.2"/>
<rect id="rect3855" x="30.3" y="88.8" class="st36" width="0" height="1.2"/>
<rect id="rect3857" x="33.1" y="82.1" class="st35" width="0" height="1.2"/>
<rect id="rect3859" x="30.3" y="82.1" class="st36" width="0" height="1.2"/>
<line id="line3861" class="st37" x1="33.1" y1="89.3" x2="33.1" y2="89.3"/>
<rect id="rect3863" x="32.5" y="82.1" class="st17" width="0.7" height="0.1"/>
<rect id="rect3865" x="32.5" y="89.9" class="st17" width="0.7" height="0.1"/>
<rect id="rect3869" x="35.3" y="82.2" class="st31" width="2.7" height="8"/>
<rect id="rect3871" x="35.3" y="82.2" class="st32" width="0" height="8"/>
<rect id="rect3873" x="37.4" y="82.2" class="st18" width="0.8" height="8"/>
<rect id="rect3875" x="38.1" y="82.2" class="st33" width="0" height="8"/>
<path id="path3877" class="st34" d="M35.3,83.3L35.3,83.3L35.3,83.3L35.3,83.3L35.3,83.3c0.3,0.2,0.8,0.2,1.1,0.2c0.3,0,0.7,0,1-0.1
	l0,0l0,0l0-1.2h-2C35.3,82.2,35.3,83.3,35.3,83.3z"/>
<path id="path3879" class="st34" d="M35.4,88.9h-0.1v1.2h2v-1.2c-0.3-0.1-0.7-0.2-1-0.2C36.1,88.7,35.7,88.8,35.4,88.9z"/>
<path id="path3881" class="st17" d="M37.5,82.2v1.2l-0.1,0v-1.2C37.4,82.2,37.5,82.2,37.5,82.2z"/>
<path id="path3883" class="st17" d="M37.5,90.1v-1.2l-0.1,0v1.2L37.5,90.1L37.5,90.1z"/>
<rect id="rect3885" x="38.1" y="88.9" class="st35" width="0" height="1.2"/>
<rect id="rect3887" x="35.3" y="88.9" class="st36" width="0" height="1.2"/>
<rect id="rect3889" x="38.1" y="82.2" class="st35" width="0" height="1.2"/>
<rect id="rect3891" x="35.3" y="82.2" class="st36" width="0" height="1.2"/>
<line id="line3893" class="st37" x1="38.2" y1="89.4" x2="38.2" y2="89.4"/>
<rect id="rect3895" x="37.5" y="82.2" class="st17" width="0.7" height="0.1"/>
<rect id="rect3897" x="37.5" y="90" class="st17" width="0.7" height="0.1"/>
<rect id="rect3901" x="35.3" y="118.1" class="st31" width="2.7" height="8"/>
<rect id="rect3903" x="35.3" y="118.1" class="st32" width="0" height="8"/>
<rect id="rect3905" x="36.4" y="117.2" class="st18" width="0.8" height="8"/>
<rect id="rect3907" x="38.1" y="118.1" class="st33" width="0" height="8"/>
<path id="path3909" class="st34" d="M35.3,119.3L35.3,119.3L35.3,119.3L35.3,119.3L35.3,119.3c0.3,0.2,0.8,0.2,1.1,0.2
	c0.3,0,0.7,0,1-0.1l0,0l0,0l0-1.2h-2V119.3z"/>
<path id="path3911" class="st34" d="M35.4,124.8h-0.1v1.2h2v-1.2c-0.3-0.1-0.7-0.2-1-0.2C36.1,124.6,35.7,124.7,35.4,124.8z"/>
<path id="path3913" class="st17" d="M37.5,118.1v1.2l-0.1,0v-1.2C37.4,118.1,37.5,118.1,37.5,118.1z"/>
<path id="path3915" class="st17" d="M37.5,126.1v-1.2l-0.1,0v1.2C37.4,126.1,37.5,126.1,37.5,126.1z"/>
<rect id="rect3917" x="38.1" y="124.8" class="st35" width="0" height="1.2"/>
<rect id="rect3919" x="35.3" y="124.8" class="st36" width="0" height="1.2"/>
<rect id="rect3921" x="38.1" y="118.1" class="st35" width="0" height="1.2"/>
<rect id="rect3923" x="35.3" y="118.1" class="st36" width="0" height="1.2"/>
<line id="line3925" class="st37" x1="38.2" y1="125.3" x2="38.2" y2="125.3"/>
<rect id="rect3927" x="37.5" y="118.1" class="st17" width="0.7" height="0.1"/>
<rect id="rect3929" x="37.5" y="125.9" class="st17" width="0.7" height="0.1"/>
<rect id="rect3933" x="35.3" y="132.5" class="st31" width="2.7" height="8"/>
<rect id="rect3935" x="35.3" y="132.5" class="st32" width="0" height="8"/>
<rect id="rect3937" x="37.4" y="132.5" class="st18" width="0.8" height="8"/>
<rect id="rect3939" x="38.1" y="132.5" class="st33" width="0" height="8"/>
<path id="path3941" class="st34" d="M35.3,133.7L35.3,133.7L35.3,133.7L35.3,133.7L35.3,133.7c0.3,0.2,0.8,0.2,1.1,0.2
	c0.3,0,0.7,0,1-0.1l0,0l0,0l0-1.2h-2C35.3,132.5,35.3,133.7,35.3,133.7z"/>
<path id="path3943" class="st34" d="M35.4,139.2h-0.1v1.2h2v-1.2c-0.3-0.1-0.7-0.2-1-0.2C36.1,139,35.7,139.1,35.4,139.2z"/>
<path id="path3945" class="st17" d="M37.5,132.5v1.2l-0.1,0v-1.2L37.5,132.5z"/>
<path id="path3947" class="st17" d="M37.5,140.5v-1.2l-0.1,0v1.2C37.4,140.5,37.5,140.5,37.5,140.5z"/>
<rect id="rect3949" x="38.1" y="139.2" class="st35" width="0" height="1.2"/>
<rect id="rect3951" x="35.3" y="139.2" class="st36" width="0" height="1.2"/>
<rect id="rect3953" x="38.1" y="132.5" class="st35" width="0" height="1.2"/>
<rect id="rect3955" x="35.3" y="132.5" class="st36" width="0" height="1.2"/>
<line id="line3957" class="st37" x1="38.2" y1="139.7" x2="38.2" y2="139.7"/>
<rect id="rect3959" x="37.5" y="132.5" class="st17" width="0.7" height="0.1"/>
<rect id="rect3961" x="37.5" y="140.3" class="st17" width="0.7" height="0.1"/>
<rect id="rect3965" x="6.5" y="132.5" class="st31" width="2.7" height="8"/>
<rect id="rect3967" x="6.5" y="132.5" class="st32" width="0" height="8"/>
<rect id="rect3969" x="8.6" y="132.5" class="st18" width="0.8" height="8"/>
<rect id="rect3971" x="9.3" y="132.5" class="st33" width="0" height="8"/>
<path id="path3973" class="st34" d="M6.5,133.7L6.5,133.7L6.5,133.7L6.5,133.7L6.5,133.7c0.3,0.2,0.8,0.2,1.1,0.2c0.3,0,0.7,0,1-0.1
	l0,0l0,0l0-1.2h-2C6.5,132.5,6.5,133.7,6.5,133.7z"/>
<path id="path3975" class="st34" d="M6.6,139.2H6.5l0,1.2l2,0v-1.2c-0.3-0.1-0.7-0.2-1-0.2C7.3,139,6.9,139.1,6.6,139.2z"/>
<path id="path3977" class="st17" d="M8.7,132.5v1.2l-0.1,0v-1.2L8.7,132.5z"/>
<path id="path3979" class="st17" d="M8.7,140.5v-1.2l-0.1,0l0,1.2C8.6,140.5,8.7,140.5,8.7,140.5z"/>
<rect id="rect3981" x="9.3" y="139.2" class="st35" width="0" height="1.2"/>
<rect id="rect3983" x="6.5" y="139.2" class="st36" width="0" height="1.2"/>
<rect id="rect3985" x="9.3" y="132.5" class="st35" width="0" height="1.2"/>
<rect id="rect3987" x="6.5" y="132.5" class="st36" width="0" height="1.2"/>
<line id="line3989" class="st37" x1="9.4" y1="139.7" x2="9.4" y2="139.7"/>
<rect id="rect3991" x="8.7" y="132.5" class="st17" width="0.7" height="0.1"/>
<rect id="rect3993" x="8.7" y="140.3" class="st17" width="0.7" height="0.1"/>
<rect id="rect3997" x="6.5" y="118.1" class="st31" width="2.7" height="8"/>
<rect id="rect3999" x="6.5" y="118.1" class="st32" width="0" height="8"/>
<rect id="rect4001" x="8.6" y="118.1" class="st18" width="0.8" height="8"/>
<rect id="rect4003" x="9.3" y="118.1" class="st33" width="0" height="8"/>
<path id="path4005" class="st34" d="M6.5,119.3L6.5,119.3L6.5,119.3L6.5,119.3L6.5,119.3c0.3,0.2,0.8,0.2,1.1,0.2c0.3,0,0.7,0,1-0.1
	l0,0l0,0l0-1.2h-2L6.5,119.3z"/>
<path id="path4007" class="st34" d="M6.6,124.8H6.5l0,1.2h2v-1.2c-0.3-0.1-0.7-0.2-1-0.2C7.3,124.6,6.9,124.7,6.6,124.8z"/>
<path id="path4009" class="st17" d="M8.7,118.1v1.2l-0.1,0l0-1.2L8.7,118.1z"/>
<path id="path4011" class="st17" d="M8.7,126.1l0-1.2l-0.1,0v1.2L8.7,126.1z"/>
<rect id="rect4013" x="9.3" y="124.8" class="st35" width="0" height="1.2"/>
<rect id="rect4015" x="6.5" y="124.8" class="st36" width="0" height="1.2"/>
<rect id="rect4017" x="9.3" y="118.1" class="st35" width="0" height="1.2"/>
<rect id="rect4019" x="6.5" y="118.1" class="st36" width="0" height="1.2"/>
<line id="line4021" class="st37" x1="9.4" y1="125.3" x2="9.4" y2="125.3"/>
<rect id="rect4023" x="8.7" y="118.1" class="st17" width="0.7" height="0.1"/>
<rect id="rect4025" x="8.7" y="125.9" class="st17" width="0.7" height="0.1"/>
<circle id="path4027" class="st4" cx="21.6" cy="129.4" r="4.5"/>
<text id="text3685" transform="matrix(3.660255e-07 -1 1 3.660255e-07 33.8072 143.1161)" class="st4 st38 st39">DO</text>
<text id="text4391" transform="matrix(3.660255e-07 -1 1 3.660255e-07 26.461 142.9848)" class="st4 st38 st39">+</text>
<text id="text4393" transform="matrix(3.660255e-07 -1 1 3.660255e-07 19.5079 142.9848)" class="st4 st38 st39">G</text>
<text id="text4395" transform="matrix(3.660255e-07 -1 1 3.660255e-07 12.0304 142.8534)" class="st4 st38 st39">AO</text>
<g id="g585" transform="matrix(0,1,-1,0,-1.2883698,-0.21183777)">
	<text id="text4397" transform="matrix(0 -1 1 0 120.9062 -17.1593)" class="st4 st38 st39">Keyes</text>
</g>
<g id="g588" transform="matrix(0,-1,1,0,-1.2883698,-0.21183777)">
	
		<rect id="connector0pin" x="-166.3" y="9.9" transform="matrix(-2.535182e-06 -1 1 -2.535182e-06 -178.6387 -151.5863)" class="st12" width="2.3" height="7.2"/>
</g>
<g id="g591" transform="matrix(0.62354424,-0.78178807,0.7827811,0.62229715,-1.2883698,-0.21183777)">
	<polygon id="connector0terminal" class="st5" points="-124,116.1 -124,115.6 -123.5,115.6 -123.5,116.1 	"/>
</g>
<g id="g594" transform="matrix(0,-1,1,0,-1.2883698,-0.21183777)">
	
		<rect id="connector1pin" x="-166.3" y="17.2" transform="matrix(-2.535182e-06 -1 1 -2.535182e-06 -185.8645 -144.3605)" class="st12" width="2.3" height="7.2"/>
</g>
<g id="g597" transform="matrix(0.62354425,-0.78178806,0.78278111,0.62229714,-1.2883698,-0.21183777)">
	<polygon id="connector1terminal" class="st5" points="-119.5,121.7 -119.5,121.2 -119,121.2 -119,121.7 	"/>
</g>
<g id="g600" transform="matrix(0,-1,1,0,-1.2883698,-0.21183777)">
	
		<rect id="connector2pin" x="-166.3" y="24.4" transform="matrix(-2.535182e-06 -1 1 -2.535182e-06 -193.0767 -137.1483)" class="st12" width="2.3" height="7.2"/>
</g>
<g id="g603" transform="matrix(0.62354424,-0.78178807,0.7827811,0.62229715,-1.2883698,-0.21183777)">
	<polygon id="connector2terminal" class="st5" points="-115,127.4 -115,126.8 -114.5,126.8 -114.5,127.4 	"/>
</g>
<g id="g606" transform="matrix(0,-1,1,0,-1.2883698,-0.21183777)">
	
		<rect id="connector3pin" x="-166.2" y="31.6" transform="matrix(-2.535182e-06 -1 1 -2.535182e-06 -200.2593 -129.931)" class="st12" width="2.3" height="7.2"/>
</g>
<g id="g609" transform="matrix(0.62354425,-0.78178806,0.78278111,0.62229714,-1.2883698,-0.21183777)">
	<polygon id="connector3terminal" class="st5" points="-110.5,133 -110.5,132.5 -110,132.5 -110,133 	"/>
</g>
<g id="dark_led" transform="matrix(0,8.5523573,-8.6150222,0,1879.4098,135.23157)">
	<g id="_x30_leg" transform="translate(0,-1.5258798e-5)">
		<path id="path13" class="st14" d="M-6.7,216.2c0,0.1,0,0.1-0.1,0.1h-1.8c-0.1,0-0.1,0-0.1-0.1c0-0.1,0-0.1,0.1-0.1h1.8
			C-6.8,216.1-6.7,216.2-6.7,216.2z"/>
	</g>
	<g id="_x31_leg" transform="translate(0,-1.5258798e-5)">
		<path id="path16" class="st14" d="M-6.7,215.7c0,0.1,0,0.1-0.1,0.1h-1.8c-0.1,0-0.1,0-0.1-0.1c0-0.1,0-0.1,0.1-0.1h1.8
			C-6.8,215.6-6.7,215.7-6.7,215.7z"/>
	</g>
	<g id="g18" transform="translate(0,-1.5258798e-5)">
		
			<rect id="rect20-2" x="-9.1" y="215.9" transform="matrix(2.535182e-06 1 -1 2.535182e-06 207.2278 225.2231)" class="st14" width="0.2" height="0.7"/>
	</g>
	<g id="g22" transform="translate(0,-1.5258798e-5)">
		<path id="path24" class="st14" d="M-8.6,215.6c-0.1,0-0.2,0.1-0.2,0.1c0,0-0.1,0.1-0.1,0.1h-0.4v0.2h0.4c0.1,0,0.1-0.1,0.2-0.1
			c0,0,0.1-0.1,0.1-0.1"/>
	</g>
	<g id="g12" transform="translate(0,-1.5258798e-5)">
		<g id="color_path14" class="st40">
			<path id="path28" class="st4" d="M-10,215.2h-0.8c-0.5,0-0.9,0.4-0.9,0.9c0,0.5,0.4,0.9,0.9,0.9H-9c0.2-0.2,0.4-0.5,0.4-0.9
				c0-0.6-0.3-1.1-0.8-1.1h-0.2C-9.7,215-9.9,215.1-10,215.2z"/>
		</g>
		<g id="g30" class="st41">
			<path id="path32-9" class="st13" d="M-10,215.2h-0.8c-0.5,0-0.9,0.4-0.9,0.9c0,0.5,0.4,0.9,0.9,0.9H-9c0.2-0.2,0.4-0.5,0.4-0.9
				c0-0.6-0.3-1.1-0.8-1.1h-0.2C-9.7,215-9.9,215.1-10,215.2z"/>
		</g>
		<g id="path18" class="st42">
			<path id="path35" class="st43" d="M-10,215.2h0.4c0.4,0,0.7,0.4,0.7,0.9c0,0.5-0.3,0.9-0.7,0.9h0.4H-9c0.2-0.2,0.4-0.5,0.4-0.9
				c0-0.6-0.3-1.1-0.8-1.1h-0.2C-9.7,215-9.9,215.1-10,215.2z"/>
		</g>
		<g id="color_path20" class="st44">
			<path id="path38" class="st22" d="M-10,215.2h0.4c0.4,0,0.7,0.4,0.7,0.9c0,0.5-0.3,0.9-0.7,0.9h0.4H-9c0.2-0.2,0.4-0.5,0.4-0.9
				c0-0.6-0.3-1.1-0.8-1.1h-0.2C-9.7,215-9.9,215.1-10,215.2z"/>
		</g>
		<g id="color_path22" class="st45">
			<path id="path41" class="st24" d="M-10,215.2h0.4c0.4,0,0.7,0.4,0.7,0.9c0,0.5-0.3,0.9-0.7,0.9h0.4c0.2-0.2,0.4-0.5,0.4-0.9
				c0-0.6-0.3-1.1-0.8-1.1C-9.7,215-9.9,215.1-10,215.2z"/>
		</g>
		<g id="ellipse24" class="st45">
			
				<ellipse id="ellipse44" transform="matrix(2.535182e-06 1 -1 2.535182e-06 206.5183 225.6725)" class="st13" cx="-9.6" cy="216.1" rx="0.9" ry="0.7"/>
		</g>
		<g id="color_ellipse26" class="st45">
			
				<ellipse id="ellipse47" transform="matrix(2.535182e-06 1 -1 2.535182e-06 206.5183 225.6725)" class="st22" cx="-9.6" cy="216.1" rx="0.9" ry="0.7"/>
		</g>
		<g id="polygon28">
			<polygon id="polygon50" class="st46" points="-9.6,216.6 -10,216.6 -10,216.2 -10.5,215.7 -10.5,216.6 -10.4,216.7 -9.6,216.7 
							"/>
		</g>
		<g id="polygon30">
			<polygon id="polygon53" class="st46" points="-10,216.1 -10,215.6 -9.6,215.6 -9.6,215.5 -10.6,215.5 -10.6,215.6 -10.5,215.6 
							"/>
		</g>
		<g id="color_path32" class="st47">
			<path id="path56" d="M-10,215.2h-0.8c-0.5,0-0.9,0.4-0.9,0.9c0,0.5,0.4,0.9,0.9,0.9H-9c0.2-0.2,0.4-0.5,0.4-0.9
				c0-0.6-0.3-1.1-0.8-1.1h-0.2C-9.7,215-9.9,215.1-10,215.2z"/>
		</g>
		<g id="path34-5" class="st41">
			<path id="path59" class="st4" d="M-11.2,215.7l0-0.2c-0.2,0.1-0.3,0.3-0.3,0.5l0.1,0C-11.4,215.8-11.3,215.7-11.2,215.7z"/>
		</g>
		<g id="path36-3" class="st41">
			<path id="path62" class="st4" d="M-9.1,216.9h0.2c0.1-0.1,0.1-0.2,0.2-0.3h-0.2C-8.9,216.7-9,216.8-9.1,216.9z"/>
		</g>
		<g id="g64" class="st41">
			<path id="path66" class="st4" d="M-9,215.6c0,0,0,0.1,0,0.1c0,0,0,0,0,0c0,0.1,0,0.2,0.1,0.2c0,0,0,0,0,0c0,0,0,0.1,0,0.1
				c0,0,0,0,0,0.1c0,0.2,0,0.3-0.1,0.4h-1.1h-0.6c-0.2,0-0.4-0.1-0.4-0.3l0,0l-0.2,0.2c0.1,0.2,0.4,0.4,0.7,0.4h1.6c0,0,0,0-0.1,0.1
				l0.1,0c0.2-0.2,0.3-0.5,0.3-0.9C-8.8,215.9-8.9,215.7-9,215.6L-9,215.6C-9,215.6-9,215.6-9,215.6z"/>
		</g>
	</g>
</g>
<path class="st48" d="M44.6,49.8c-4.5-0.5-8.3-2.4-11.3-5.8c-3-3.3-4.5-7.2-4.5-11.8c1.2,0.1,2.4,0.3,3.6,0.4
	c-0.2-0.3-0.2-0.4-0.3-0.5c-1.3-1.5-1.5-3.3-1.4-5.1c0.2-2.4,1-4.7,2-6.9c0.1-0.1,0.1-0.3,0.3-0.5c0.2,2.1,0.5,3.9,2.4,5.1
	c0.7,0.4,1.5,0.7,2.5,0.5c-0.1-0.3-0.1-0.5-0.2-0.7c-0.5-1.2-0.7-2.5-0.7-3.8c0-1.2,0.4-2.3,1.3-3.2c2.5-2.5,4.5-5.4,5.7-8.8
	c0.9-2.5,1.3-5.1,0.9-7.7c0-0.2,0-0.5,0-0.9c1.6,0.7,3.1,1.3,4.5,2.1c2.9,1.5,5.4,3.5,7.2,6.3c2.1,3.1,2.8,6.4,2.4,10.1
	c-0.2,1.9-0.7,3.8-1.4,5.6c-0.3,0.7-0.2,0.8,0.5,1c1.4,0.4,2.6-0.1,3.6-1.1c0.5-0.5,0.9-1.1,1.4-1.7c1.7,3.7,1.5,7.2-0.9,10.8
	c1.4-0.3,2.7-0.5,3.9-0.7c0.4,7-5.2,16.1-15.3,17.6c1.2-1.3,2.1-2.8,2.7-4.4c1.6-3.9,1-7.7-1.1-11.3c-1.2-2.1-2.8-3.8-4.5-5.5
	c-0.1-0.1-0.3-0.2-0.5-0.4c0.2,1,0.3,1.9,0.4,2.7c0.3,1.9,0.5,3.8,0.2,5.7c0,0.1,0,0.2,0,0.3c-0.4,1.9-1.5,2.5-3.2,1.5
	c-0.8-0.4-1.5-0.9-2.3-1.3c-0.3-0.2-0.5-0.3-0.7,0.1c-1,2.6-1.5,5.2-0.6,8c0.5,1.7,1.5,3,2.9,4.1C44.3,49.5,44.4,49.6,44.6,49.8z"/>
</svg>
