<?xml version="1.0" encoding="utf-8"?>
<!-- Generator: Adobe Illustrator 28.0.0, SVG Export Plug-In . SVG Version: 6.00 Build 0)  -->
<svg version="1.1" id="Layer_1" xmlns="http://www.w3.org/2000/svg" xmlns:xlink="http://www.w3.org/1999/xlink" x="0px" y="0px"
	 viewBox="0 0 64.8 179.4" style="enable-background:new 0 0 64.8 179.4;" xml:space="preserve">
<style type="text/css">
	.st0{fill:#141414;}
	.st1{fill:#FFFFFF;}
	.st2{font-family:'ArialMT';}
	.st3{font-size:4.176px;}
	.st4{fill:none;stroke:#FFFFFF;stroke-width:0.576;stroke-linecap:round;}
	.st5{fill:#333333;}
	.st6{fill:none;stroke:#9A916C;stroke-width:1.224;}
	.st7{fill:none;stroke:#9A916C;stroke-width:1.1792;}
	.st8{fill:#8E8585;}
	.st9{fill:#AAAAAA;}
	.st10{fill:#404040;}
	.st11{fill:#8D8C8C;}
	.st12{fill:#8C8663;}
	.st13{fill:#B8AF82;}
	.st14{fill:#80795B;}
	.st15{fill:#5E5B43;}
	.st16{fill:#9A916C;}
	.st17{fill:#FFCC00;}
	.st18{fill:#D4AA00;}
	.st19{fill:#0BA4E0;}
</style>
<path class="st0" d="M57.6,6.6H7.2c-4,0-7.2,3.2-7.2,7.2v38.9h21.7c0.3-1.7,1.8-2.9,3.5-2.9h14.4c1.8,0,3.2,1.3,3.5,2.9h21.7V13.8
	C64.8,9.9,61.5,6.6,57.6,6.6z M11.8,13.8c0,2.6-2.1,4.7-4.7,4.7s-4.7-2.1-4.7-4.7l0,0c0-2.6,2.1-4.7,4.7-4.7
	C9.7,9.2,11.8,11.3,11.8,13.8L11.8,13.8z M21.9,18.5c-0.9,0-1.7-0.8-1.7-1.7c0-0.9,0.8-1.7,1.7-1.7s1.7,0.8,1.7,1.7
	S22.8,18.5,21.9,18.5z M26.6,24.6c0,0.8-0.6,1.4-1.4,1.4s-1.5-0.6-1.5-1.4s0.6-1.4,1.4-1.4S26.6,23.9,26.6,24.6L26.6,24.6z
	 M32.4,26.1c-0.8,0-1.4-0.6-1.4-1.4s0.6-1.4,1.4-1.4s1.4,0.6,1.4,1.4S33.1,26.1,32.4,26.1z M32.3,18.5c-0.9,0-1.7-0.8-1.7-1.7
	c0-0.9,0.8-1.7,1.7-1.7s1.7,0.8,1.7,1.7S33.2,18.5,32.3,18.5z M39.6,26.1c-0.8,0-1.4-0.6-1.4-1.4s0.6-1.4,1.4-1.4s1.4,0.6,1.4,1.4
	S40.3,26.1,39.6,26.1z M42.7,18.5c-0.9,0-1.7-0.8-1.7-1.7c0-0.9,0.8-1.7,1.7-1.7s1.7,0.8,1.7,1.7S43.7,18.5,42.7,18.5z M57.6,18.5
	c-2.6,0-4.7-2.1-4.7-4.7s2.1-4.7,4.7-4.7s4.7,2.1,4.7,4.7C62.2,16.4,60.1,18.5,57.6,18.5z"/>
<ellipse class="st0" cx="42.8" cy="16.8" rx="2" ry="2.3"/>
<text transform="matrix(1 0 0 1 26.64 35.9779)" class="st1 st2 st3">FC-28</text>
<g>
	<g>
		<line class="st4" x1="48.9" y1="29.5" x2="15.8" y2="29.5"/>
		<line class="st4" x1="15.8" y1="29.5" x2="15.8" y2="11.9"/>
		<line class="st4" x1="15.8" y1="11.9" x2="15.8" y2="9.7"/>
		<line class="st4" x1="15.8" y1="9.7" x2="48.9" y2="9.7"/>
		<line class="st4" x1="48.9" y1="9.7" x2="48.9" y2="11.9"/>
		<line class="st4" x1="48.9" y1="11.9" x2="48.9" y2="29.5"/>
		<line class="st4" x1="15.8" y1="11.9" x2="48.9" y2="11.9"/>
	</g>
</g>
<rect x="28.4" y="37.1" class="st5" width="7.9" height="2.3"/>
<circle id="connector2pin" class="st6" cx="25.2" cy="24.6" r="2.1"/>
<rect x="23.1" y="22.6" class="st6" width="4.1" height="4.1"/>
<circle id="connector3pin" class="st6" cx="32.4" cy="24.6" r="2.1"/>
<circle id="connector4pin" class="st6" cx="39.6" cy="24.6" r="2.1"/>
<circle id="connector5pin" class="st7" cx="39.6" cy="16.8" r="2.3"/>
<circle id="connector6pin" class="st7" cx="32.3" cy="16.8" r="2.3"/>
<g>
	<path class="st8" d="M0,52.8v105.1l7.2,21.6h7.2l7.2-21.6V53.4c0-0.2,0-0.5,0.1-0.7L0,52.8L0,52.8z"/>
	<path class="st8" d="M43.1,52.8c0,0.2,0.1,0.4,0.1,0.7v104.4l7.2,21.6h7.2l7.2-21.6V52.8H43.1z"/>
</g>
<g>
	<g>
		<circle class="st9" cx="10.7" cy="171.5" r="1"/>
	</g>
	<g>
		<circle class="st9" cx="3.2" cy="143.2" r="1"/>
		<circle class="st9" cx="10.7" cy="143.2" r="1"/>
		<circle class="st9" cx="18.1" cy="143.2" r="1"/>
	</g>
	<g>
		<circle class="st9" cx="3.2" cy="114.8" r="1"/>
		<circle class="st9" cx="10.7" cy="114.8" r="1"/>
		<circle class="st9" cx="18.1" cy="114.8" r="1"/>
	</g>
	<g>
		<circle class="st9" cx="3.2" cy="86.5" r="1"/>
		<circle class="st9" cx="10.7" cy="86.5" r="1"/>
		<circle class="st9" cx="18.1" cy="86.5" r="1"/>
	</g>
	<g>
		<circle class="st9" cx="3.2" cy="58.1" r="1"/>
		<circle class="st9" cx="10.7" cy="58.1" r="1"/>
		<circle class="st9" cx="18.1" cy="58.1" r="1"/>
	</g>
</g>
<g>
	<g>
		<circle class="st9" cx="6.9" cy="157.1" r="1"/>
		<circle class="st9" cx="14.4" cy="157.1" r="1"/>
	</g>
	<g>
		<circle class="st9" cx="6.9" cy="128.7" r="1"/>
		<circle class="st9" cx="14.4" cy="128.7" r="1"/>
	</g>
	<g>
		<circle class="st9" cx="6.9" cy="100.4" r="1"/>
		<circle class="st9" cx="14.4" cy="100.4" r="1"/>
	</g>
	<g>
		<circle class="st9" cx="6.9" cy="72" r="1"/>
		<circle class="st9" cx="14.4" cy="72" r="1"/>
	</g>
</g>
<g>
	<g>
		<circle class="st9" cx="54" cy="171.5" r="1"/>
	</g>
	<g>
		<circle class="st9" cx="46.5" cy="143.2" r="1"/>
		<circle class="st9" cx="54" cy="143.2" r="1"/>
		<circle class="st9" cx="61.5" cy="143.2" r="1"/>
	</g>
	<g>
		<circle class="st9" cx="46.5" cy="114.8" r="1"/>
		<circle class="st9" cx="54" cy="114.8" r="1"/>
		<circle class="st9" cx="61.5" cy="114.8" r="1"/>
	</g>
	<g>
		<circle class="st9" cx="46.5" cy="86.5" r="1"/>
		<circle class="st9" cx="54" cy="86.5" r="1"/>
		<circle class="st9" cx="61.5" cy="86.5" r="1"/>
	</g>
	<g>
		<circle class="st9" cx="46.5" cy="58.1" r="1"/>
		<circle class="st9" cx="54" cy="58.1" r="1"/>
		<circle class="st9" cx="61.5" cy="58.1" r="1"/>
	</g>
</g>
<g>
	<g>
		<circle class="st9" cx="50.2" cy="157.1" r="1"/>
		<circle class="st9" cx="57.7" cy="157.1" r="1"/>
	</g>
	<g>
		<circle class="st9" cx="50.2" cy="128.7" r="1"/>
		<circle class="st9" cx="57.7" cy="128.7" r="1"/>
	</g>
	<g>
		<circle class="st9" cx="50.2" cy="100.4" r="1"/>
		<circle class="st9" cx="57.7" cy="100.4" r="1"/>
	</g>
	<g>
		<circle class="st9" cx="50.2" cy="72" r="1"/>
		<circle class="st9" cx="57.7" cy="72" r="1"/>
	</g>
</g>
<rect x="30.1" y="41.2" class="st7" width="4.6" height="4.6"/>
<circle class="st1" cx="39.6" cy="16.8" r="1.7"/>
<rect x="17" y="12.5" class="st0" width="29.3" height="14.9"/>
<g>
	<polygon id="polygon7" class="st10" points="22.3,19.6 23.9,21.2 27.9,21.2 29.5,19.6 29.5,15.6 27.9,14 23.9,14 22.3,15.6 	"/>
	<g transform="scale(-1)">
		<rect id="rect3482" x="-27" y="-18.8" class="st11" width="2.3" height="2.3"/>
	</g>
	<g transform="scale(-1)">
		<rect id="rect3484" x="-26.4" y="-18.3" class="st12" width="1.2" height="1.2"/>
	</g>
	<g transform="matrix(-0.09999851,0,0,-0.1,636.13117,1570.4589)">
		<polygon id="polygon3486" class="st13" points="6097.4,15533.6 6091.8,15539.2 6114.8,15539.2 6109.2,15533.6 		"/>
	</g>
	<g transform="matrix(-0.09999851,0,0,-0.1,636.13117,1570.4589)">
		<polygon id="polygon3488" class="st14" points="6091.8,15539.2 6091.8,15516.2 6097.4,15521.8 6097.4,15533.6 		"/>
	</g>
	<g transform="matrix(-0.09999851,0,0,-0.1,636.13117,1570.4589)">
		<polygon id="polygon3490" class="st15" points="6091.8,15516.2 6114.8,15516.2 6109.2,15521.8 6097.4,15521.8 		"/>
	</g>
	<g transform="matrix(-0.09999851,0,0,-0.1,636.13117,1570.4589)">
		<polygon id="polygon3492" class="st16" points="6109.2,15521.8 6114.8,15516.2 6114.8,15539.2 6109.2,15533.6 		"/>
	</g>
	<g transform="scale(-1)">
		
			<rect id="connector2pin_00000061471476804756825160000015520338964666450877_" x="-25.5" y="-7.4" class="st17" width="2.3" height="7.2"/>
	</g>
	<g transform="scale(-1)">
		<rect id="rect3496" x="-26.1" y="-18.8" class="st18" width="0.6" height="18.3"/>
	</g>
	<g transform="scale(-1)">
		<rect id="rect3498" x="-26.6" y="-18.8" class="st18" width="1.4" height="2.1"/>
	</g>
	<rect id="rect3677" x="23.2" y="0.2" class="st17" width="2.3" height="18.6"/>
</g>
<g>
	<polygon id="polygon7_00000125603572079150130920000011340113955139483029_" class="st10" points="34.1,19.7 35.6,21.3 39.7,21.3 
		41.3,19.7 41.3,15.7 39.7,14.1 35.6,14.1 34.1,15.7 	"/>
	<g transform="scale(-1)">
		
			<rect id="rect3482_00000072968090913345035890000016141685503153191813_" x="-38.7" y="-18.9" class="st11" width="2.3" height="2.3"/>
	</g>
	<g transform="scale(-1)">
		
			<rect id="rect3484_00000170998140200804848300000012857805815807143072_" x="-38.2" y="-18.4" class="st12" width="1.2" height="1.2"/>
	</g>
	<g transform="matrix(-0.09999851,0,0,-0.1,636.13117,1570.4589)">
		<polygon id="polygon3486_00000106841957694095711090000009741971664335751080_" class="st13" points="5979.7,15532.8 
			5974.1,15538.3 5997.1,15538.3 5991.5,15532.8 		"/>
	</g>
	<g transform="matrix(-0.09999851,0,0,-0.1,636.13117,1570.4589)">
		<polygon id="polygon3488_00000026126799594641844090000005721949139456872886_" class="st14" points="5974.1,15538.3 
			5974.1,15515.4 5979.7,15521 5979.7,15532.8 		"/>
	</g>
	<g transform="matrix(-0.09999851,0,0,-0.1,636.13117,1570.4589)">
		<polygon id="polygon3490_00000054982860589336276170000013073521001795756446_" class="st15" points="5974.1,15515.4 
			5997.1,15515.4 5991.5,15521 5979.7,15521 		"/>
	</g>
	<g transform="matrix(-0.09999851,0,0,-0.1,636.13117,1570.4589)">
		<polygon id="polygon3492_00000174572129563314151400000002898403248354286733_" class="st16" points="5991.5,15521 
			5997.1,15515.4 5997.1,15538.3 5991.5,15532.8 		"/>
	</g>
	<g transform="scale(-1)">
		
			<rect id="connector2pin_00000103260318687945846620000015234322788799169423_" x="-37.3" y="-7.5" class="st17" width="2.3" height="7.2"/>
	</g>
	<g transform="scale(-1)">
		
			<rect id="rect3496_00000066481717788433896620000000199760527955603849_" x="-37.9" y="-18.9" class="st18" width="0.6" height="18.3"/>
	</g>
	<g transform="scale(-1)">
		
			<rect id="rect3498_00000176037768515733647140000017846423341196167297_" x="-38.4" y="-18.9" class="st18" width="1.4" height="2.1"/>
	</g>
	<rect id="rect3677_00000053503221166823407110000002524305391765775523_" x="35" y="0.3" class="st17" width="2.3" height="18.6"/>
</g>
<rect x="7.6" y="52.8" class="st9" width="6.5" height="119.7"/>
<rect x="10.7" y="61.3" class="st9" width="1" height="1"/>
<rect x="50.8" y="52.8" class="st9" width="6.5" height="119.7"/>
<g transform="translate(0.000000,1280.000000) scale(0.100000,-0.100000)">
	<path class="st19" d="M184.6,11453.4c-22.2-29.7-42.1-60.5-64.1-99.1c-11.1-19.6-17-30.5-24.5-45.4
		c-26.1-52.2-43.6-100.6-48.2-133.4c-0.8-6-0.8-19.2,0-26.2c2.2-18.3,7.4-35.2,16-52c8-15.7,17.6-28.9,30.4-41.4
		c27.8-27.2,63.6-41.3,102.5-40.2c20.9,0.6,38.7,4.9,56.6,13.6c13.7,6.7,24.5,14.5,35.8,25.7c12,12,21.2,24.7,29.1,40.4
		c12.3,24.6,18.5,54.5,16.1,77.6c-4.2,40.1-29.1,106.5-62.2,165.8c-16.8,30.1-36.4,61.9-52.7,85.6c-8.9,13-26.8,37.4-27.8,38
		C191.6,11462.5,188.3,11458.5,184.6,11453.4z"/>
</g>
<g transform="translate(0.000000,1280.000000) scale(0.100000,-0.100000)">
	<path class="st19" d="M505.6,11737.4c-22.2-29.7-42.1-60.5-64.1-99.1c-11.1-19.6-17-30.5-24.5-45.4
		c-26.1-52.2-43.6-100.6-48.2-133.4c-0.8-6-0.8-19.2,0-26.2c2.2-18.3,7.4-35.2,16-52c8-15.7,17.6-28.9,30.4-41.4
		c27.8-27.2,63.6-41.3,102.5-40.2c20.9,0.6,38.7,4.9,56.6,13.6c13.7,6.7,24.5,14.5,35.8,25.7c12,12,21.2,24.7,29.1,40.4
		c12.3,24.6,18.5,54.5,16.1,77.6c-4.2,40.1-29.1,106.5-62.2,165.8c-16.8,30.1-36.4,61.9-52.7,85.6c-8.9,13-26.8,37.4-27.8,38
		C512.6,11746.5,509.3,11742.5,505.6,11737.4z"/>
</g>
<g transform="translate(0.000000,1280.000000) scale(0.100000,-0.100000)">
	<path class="st19" d="M156.1,12007.4c-22.2-29.7-42.1-60.5-64.1-99.1c-11.1-19.6-17-30.5-24.5-45.4
		c-26.1-52.2-43.6-100.6-48.2-133.4c-0.8-6-0.8-19.2,0-26.2c2.2-18.3,7.4-35.2,16-52c8-15.7,17.6-28.9,30.4-41.4
		c27.8-27.2,63.6-41.3,102.5-40.2c20.9,0.6,38.7,4.9,56.6,13.6c13.7,6.7,24.5,14.5,35.8,25.7c12,12,21.2,24.7,29.1,40.4
		c12.3,24.6,18.5,54.5,16.1,77.6c-4.2,40.1-29.1,106.5-62.2,165.8c-16.8,30.1-36.4,61.9-52.7,85.6c-8.9,13-26.8,37.4-27.8,38
		C163.1,12016.5,159.8,12012.5,156.1,12007.4z"/>
</g>
<g transform="translate(0.000000,1280.000000) scale(0.100000,-0.100000)">
	<path class="st19" d="M477.1,12291.4c-22.2-29.7-42.1-60.5-64.1-99.1c-11.1-19.6-17-30.5-24.5-45.4
		c-26.1-52.2-43.6-100.6-48.2-133.4c-0.8-6-0.8-19.2,0-26.2c2.2-18.3,7.4-35.2,16-52c8-15.7,17.6-28.9,30.4-41.4
		c27.8-27.2,63.6-41.3,102.5-40.2c20.9,0.6,38.7,4.9,56.6,13.6c13.7,6.7,24.5,14.5,35.8,25.7c12,12,21.2,24.7,29.1,40.4
		c12.3,24.6,18.5,54.5,16.1,77.6c-4.2,40.1-29.1,106.5-62.2,165.8c-16.8,30.1-36.4,61.9-52.7,85.6c-8.9,13-26.8,37.4-27.8,38
		C484.1,12300.5,480.8,12296.5,477.1,12291.4z"/>
</g>
</svg>
